<?xml version="1.0" encoding="utf-8"?>
<!-- Generator: Adobe Illustrator 21.1.0, SVG Export Plug-In . SVG Version: 6.00 Build 0)  -->
<svg version="1.1" id="Layer_1" xmlns="http://www.w3.org/2000/svg" xmlns:xlink="http://www.w3.org/1999/xlink" x="0px" y="0px"
	 viewBox="0 0 1920 950" style="enable-background:new 0 0 1920 950;" xml:space="preserve">
<style type="text/css">
	.st0{fill:#F86B54;}
</style>
<g>
	<path class="st0" d="M1808.8,827.2c0.2-2.1,2-6-2.6-6.1c-8.3-0.1-16.7-0.4-25,0.3c-8.9,0.8-8.9,1.2-7.4,10.4
		c0.4,2.6,0.2,4.6-3.4,4.3c-3.6-0.3-7.3-0.2-11,0c-2.9,0.2-3.6-0.9-3.6-3.7c-0.1-11.2-0.5-22.3-0.7-33.5c-0.1-5-1.4-6.2-6.4-5.8
		c-2.8,0.2-6,1.5-8.3,0.5c-2.6-1.1-4.5-1.5-7.2-0.5c-2.4,0.9-3.4-0.7-3.3-3.3c0.3-6.5-0.2-13-1.7-19.3c-3.8-15.9-9-31.4-10.9-47.6
		c-0.6-5-3.2-10.3-0.8-15.1c3.5-7.1,8.4-13.5,14.5-18.8c3.9-3.4,8-6,13.4-2.6c1.6,1,3.5,0.6,5.3-0.2c1.8-0.8,3.6-1.6,3.1-3.9
		c-0.4-2-2.4-1.3-3.8-1.4c-1-0.1-2.1-0.1-3.8-0.2c0-0.1,0-0.2,0-0.2c10.2-4.9,25.2-7.2,34.3-5.4c1.2,0.2,3.5,0.7,2.9,1.8
		c-1.2,2.2-2.1,3.8,0.9,5.1c2,0.9,3.8,2.1,6.1,1.6c4.5-1.1,4.8,2,4,4.7c-0.8,2.7,0.2,3.6,2.3,4.6c3.4,1.6,6.3,1.5,9.7-0.6
		c2.1-1.3,5.9-1.2,5.3-4.5c-0.5-2.8-2.3-5.7-6.4-5.9c-1.8-0.1-3.3-1-3.6-3.8c-0.3-2.8-2.5-5.1-5.9-4.9c-5.5,0.4-7,0.1-12.4-2.9
		c9.1-2.7,17.1-1.5,23.9,5.4c1.3,1.3,2.5,2.8,4,3.8c1.7,1.1,4,1.6,5.4-0.3c1.4-2,0.2-3.6-1.7-4.9c-3.5-2.6-6.9-5.4-10.9-8.7
		c0,0,0-0.1,0-0.1c0-0.1,0.1-0.1,0.1-0.2c4,0,7.2-0.3,10.3,0.1c3.8,0.4,7.1,2.7,10.6,4.2c1.6,0.7,3.2,1.2,4.7-0.1
		c1.5-1.3,1.2-3,0.9-4.7c-0.3-1.7-1.6-2.3-3.3-2.5c-10.6-1.1-21.3-4-32.5,1.3c-0.2-0.1-0.5-0.2-0.7-0.4c0.6-2.4,1-4.3-1-5.3
		c-1.7-0.9-3.6-1-5.2,0.2c-1.4,1.1-3.5,2.5-3.7,3.9c-0.5,5.3-4.7,5.3-8.2,6.3c-13.2,3.6-27.1,4.6-39.1,12c-0.9,0.5-1.8,1.4-2.5-0.7
		c-0.9-3-3.6-2.8-5.8-2c-2.3,0.9-2.1,2.8-1.2,5c0.7,1.7,0.7,3.7-1.1,5.4c-3.1,2.9-5.9,6.2-9.5,10.1c-0.1-0.1-0.2-0.1-0.3-0.2
		c0.7-10.8-1.8-20.4-4.7-29.8c-0.5-1.5-0.4-3.4,0.2-4.9c2.3-5.5,4.4-11.1,7.8-16.1c8.2-12.2,16.1-24.6,22-38.2
		c2.9-6.8,6.3-13.8,12.7-18.2c4.2-2.9,8-8.3,14.5-4.5c1.1,0.6,3,0.2,4.4-0.1c1.5-0.4,2.8-1.4,3-3c0.2-1.8-1.5-2.4-2.7-3.2
		c-2.6-1.6-5.1,0.6-7.8,0.2c1.4-4,1-10.3,8.3-5.9c1.5,0.9,3.1-0.2,4.3-1.7c1-1.3,0.9-2.4,0.2-3.7c-2.3-4.1-5.6-5.2-9.7-2.9
		c-3.6,2.1-6.5,4.8-7.7,9.2c-1.2,4.2-3.3,7.7-7.6,10.3c-7.5,4.5-13.9,11-16.6,19.2c-6.1,18-18.3,32.2-27.6,48.6c-0.1,0-0.2,0-0.3,0
		c-1-1.6-2-2.9-2.7-4.3c-2.3-4.7-3.6-10.2-0.5-14.2c3.6-4.7,4.1-9.8,4.6-14.9c0.8-8.2,2.8-15.2,11.5-18.5c1.2-0.4,2.2-1.5,3-2.5
		c0.9-1.1,1.1-3.1-0.6-3.2c-3.9-0.4-2-2.1-1.3-3.8c0.7-2,1.1-4.2,1.7-6.2c0.6-1.7,1.8-3.8-0.2-4.9c-2.2-1.3-4.7-0.3-6.2,1.8
		c-1.5,2.1-3,4.4-2.8,7.3c0.1,1.5,0,2.8-0.8,4.3c-4.9,8.4-10.5,16.5-10.4,28.1c0,0-0.1,0-0.1,0c-1.7-5.9-1.7-11-4.1-15.5
		c-1.2-2.2-1.5-5.4,0-7.2c2.2-2.5,1.8-5.8,3.7-8.3c1.5-1.9,1.1-4.1-1.1-5.7c-2-1.5-3.8-0.4-5.5,0.8c-2.2,1.6-2.8,4.1-3.5,6.8
		c-3.3-6.6-8.6-12.3-6.3-20.6c0.8-3,1.1-6.2,1-9.3c-0.1-7.3-0.4-14.6,3.9-21c0.5-0.8,0.7-1.8,1-2.8c0.5-2.2-0.3-3.2-2.6-2.7
		c-4.5,0.9-8.3,5.4-8.3,9.9c0,3.8,0,7.7,0,11.5c0,6.2-0.5,12.2-2.4,18.2c-5.5-5-7.6-10.7-6.5-17.6c0.3-1.6,0.2-3.4,0-5
		c-0.4-3-2.6-4.3-5-2.8c-2.5,1.6-6.3,2.9-5.1,7.3c-2.5-0.5-3.3-2-3.8-3.8c-0.8-2.9-3.2-2.1-4.9-1.6c-1.9,0.5-2,1.9-1.4,4
		c1.3,4.5,4.3,7.4,7.9,9.8c3.8,2.5,7.8,4.7,10.3,8.9c3.6,6.2,10.2,10.2,13.7,16.1c8.5,14.5,14.8,30,13.4,47.6
		c-0.4,4.7,0.8,9.3,2.8,13.5c5.2,11.3,5.6,23.6,8.2,35.5c1.4,6.6-0.4,13.2,0.2,19.7c1.3,13.3,3.3,26.5,6.4,39.5
		c3.1,12.9,8.5,25.4,8.9,38.9c0.1,2.7,1.2,7-2.2,6.9c-6.9-0.2-13.8,2.5-20.7-0.2c-3.4-1.3-5.7,1-5.3,3.8c1.7,11-1.4,21.9-0.2,32.8
		c0.5,4.8-1.3,6-6.1,5.9c-50.4-0.2-100.8-0.3-151.2-0.2c-12.6,0-25.2,0.3-37.9,0.7c-29.3,1.1-58.6-0.2-87.9,1.1
		c-24.6,1.1-49.2-0.1-73.9,0.8c-32.4,1.2-64.9-0.3-97.4,1.3c-14,0.7-27.9-0.1-41.9,0.7c-18.1,1.1-36.2,0.4-54.4,1.2
		c-26.6,1.1-53.2,0-79.9,0.9c-33.4,1.1-66.9,0-100.4,1.2c-23.8,0.9-47.6-0.3-71.4,0.9c-22.2,1.1-44.6,0-66.9,1
		c-27.3,1.2-54.6-0.2-81.9,1c-26.9,1.2-53.9-0.2-80.9,0.9c-28.6,1.2-57.3-0.5-85.9,1.1c-17.6,1-35.3-0.2-52.9,0.9
		c-10.8,0.7-21.6,0.2-32.4-0.5c-17.6-1.1-35.2-0.4-52.9-0.9c-36.3-0.9-72.6-0.2-108.9-1.2c-4.3-0.1-5.6-0.9-5.6-5.4
		c0.6-38.3,0.9-76.6,1.3-115c0.1-10.7,0.1-10.8,10.5-10.7c3.5,0,6.1-0.3,4.8-5c-0.8-3.1,0.9-4.1,3.9-3.9c3.3,0.2,6.7,0,10,0.1
		c2.6,0.1,4.7-1.1,4.2-3.6c-0.8-4.1,2.1-8.7-1.8-12.2c-0.3-0.3-1-0.2-1.5-0.1c-5.5,1.1-5.9-2.2-5.5-6.3c0.2-2.3,0-4.7-0.1-7
		c-0.1-1.7,0.3-2.9,1.9-4.2c7-5.7,8.2-17.5,3.1-24.9c-1.5-2.1-4.9-2-5.3-3.9c-1.3-5.6-5.6-6.1-9.8-6.5c-2.9-0.2-3.4-1.7-3.7-4
		c-0.5-4.3,2-7.3,4.1-10.4c2.6-3.9,4.1-8,2.6-12.7c-0.5-1.5-1.4-2.7-3.3-2.4c-1.6,0.3-2.5,1.4-1.9,2.8c2,4.7-0.7,8-3,11.5
		c-1.7,2.7-4,5.4-3.4,8.6c1.1,6-2,6.9-6.8,6.3c-1-0.1-2-0.1-3,0.1c-12,2.4-11.9-1.9-11.3,12.9c0.5,12.1,1.3,24.2,2,36.3
		c0.1,2.2,0,3.9-3,3.8c-4.6-0.2-9.3-0.1-13.9-0.2c-2.6,0-4.2-0.6-5.2-3.9c-1.8-6.2-6.9-9.2-13.1-9.9c-6.2-0.7-12.7,0.8-14.9,6.7
		c-2.4,6.3-6.3,6.5-11.4,6c-2.1-0.2-4.3,0-6.5-0.1c-3.8-0.1-8.6,1.2-11.2-0.7c-3.1-2.2-1.2-7.4-1.2-11.3c0-3.8-1.6-4.9-5.1-4.9
		c-7,0-14-0.7-21-0.6c-3.4,0-4.2-1.1-4.2-4.3c0.2-7.7,0.3-15.3,0-23c-0.2-3.8,1.1-4.7,4.8-4.8c29.3-0.5,58.6-1.5,87.9-1.3
		c6.3,0,6.5-0.2,6.5-6.4c-0.1-23.5-1.1-46.9-2.1-70.4c-1.2-26.5-1.8-52.9-1.4-79.4c0.1-4.2-1.4-5.8-5.9-5.8
		c-48.5,0.5-97,0.9-145.4,1.2c-24.7,0.2-49.3-0.2-74,0.8c-6.5,0.3-6.6,0.3-6.5,6.8c0.7,36.6,1.4,73.3,2.1,109.9
		c0.3,15.1,0.6,30.3,0.8,45.4c0,2.6,0.3,4.9,3.6,4.6c12.6-1.1,25.2-1.6,37.9-2.2c23.4-1.2,46.9-2.1,70.3-2.6
		c2.5-0.1,3.6,0.5,3.5,3.2c-0.2,8.2-0.1,16.3,0,24.5c0,2.6-0.7,3.5-3.4,3.5c-6-0.2-12,0-18,0c-9,0-9,0-9.8,8.8c-0.1,1-0.6,2-0.5,2.9
		c0.5,4.2-1.9,4.4-5.1,4.3c-9.5-0.4-19-0.6-28.4-0.8c-21.5-0.4-43-0.8-64.5-0.9c-3.9,0-4.7-1.2-4.3-4.9c1.2-11.4,1.9-22.8,2.9-34.3
		c0.3-4.1-0.1-7.5-5.6-7.2c4-9.9,9.5-18.8,11.1-29.1c0.3-2.2,1.9-4.8-1.9-5.5c-2.1-0.4-7.2,3.4-7.3,5.1c-0.3,5.1-1.7,7.9-5.8,11.1
		c-0.4-8.8,0-17.4,1.3-25.9c0.9-6.2,0.2-7.3-6.3-7.5c-3.7-0.1-7.3,0.4-10.9,0.5c-4.2,0.1-4.9,2-4.9,5.6c0.2,6.9,0.1,13.7,0.1,21.6
		c-0.3,0.6-0.6,0.9-1,1.1c-2.9-2.1-4.9-3.5-6.7-4.9c-1.8-1.4-3.9-1.4-4.4,0.8c-1,4.2-2.6,8.5,0.4,12.9c3.2,4.6,5.7,9.6,8.8,15
		c-0.1,0.1-0.1,0.3-0.2,0.4c-5.4-0.7-6.3,2.2-6.3,6.5c0,8.5-0.2,17-0.8,25.5c-0.3,4,1.9,9.6-1.3,11.6c-2.9,1.9-8,0.3-12.2,0.3
		c0,1.7,0,3.3,0,5c22.5,1.2,44.9,0.9,67.4,1.3c47.3,0.8,94.6,1.6,141.8,2.7c26.8,0.6,53.6,0.8,80.4,1.3c20.6,0.4,41.2,0.9,61.8,0.8
		c2.4,0,3.6,0.4,3.6,3.2c0,3.3-2,2.8-4,2.8c-24-0.1-48-0.1-72-0.3c-22.1-0.2-44.2-0.6-66.3-0.8c-48.6-0.5-97.3-0.8-145.9-1.3
		c-22.3-0.2-44.6-0.5-67-0.7c0,1.7,0,3.3,0,5c43.1,0.6,86.3,1.2,129.4,1.7c38.3,0.4,76.6,0.5,115,0.7c5.3,0,10.6,0.7,15.9-0.1
		c2.3-0.3,5.5-0.1,4.7,3.3c-1.6,7.2,2.9,6.6,7.3,6.5c1.5,0,3,0.1,4.5,0c2.4-0.2,3.2,0.8,3.1,3.2c-0.3,4.7-0.6,9.3-0.6,14
		c-0.2,31.2-0.3,62.3-0.5,93.5c0,5.6-0.4,11.3-0.5,16.9c0,1.9-0.2,2.7-2.7,2.6c-28.4-0.7-56.9,0.5-85.4-1
		c-21.6-1.2-43.2,0.1-64.9-0.9c-27.9-1.3-55.9,0.5-83.9-1.1C27.7,841.4,13.8,842,0,842c0,1.3,0,2.7,0,4c6.3,1.1,12.6,0.1,18.9-0.1
		c10.8-0.4,21.6,0.5,32.4,0.8c26.9,0.7,53.9,0.2,80.8,1c28,0.8,55.9,0.8,83.9,1.1c19.1,0.2,38.3,0.4,57.4,0.4c3.6,0,4.8,1.2,4.9,4.9
		c0.2,10.1,0.7,20.2-0.2,30.3c-0.4,4.1,1.4,5.6,5.5,5.5c12-0.2,24-0.2,36-0.1c4.2,0.1,6.1-1.4,6.1-5.7c-0.1-9.8,0.2-19.7,0-29.5
		c0-3.2,0.5-4.6,4.2-4.7c23.5-0.6,46.9,1,70.4,1.1c11.8,0.1,23.6-0.4,35.4-0.1c23.8,0.5,47.6,1.4,71.4,1.7
		c34.1,0.5,68.2-1.6,102.3-1.3c18.9,0.2,37.9-0.3,56.9-1c31.1-1.2,62.3-0.1,93.4-1.1c26.4-0.8,52.9,0,79.4-0.5
		c34.1-0.7,68.2-1.4,102.3-1.6c29.8-0.2,59.5-0.9,89.3-0.9c23.6,0,47.2-0.9,70.8-0.8c36.1,0.2,72.2-1.6,108.4-2.3
		c28.1-0.5,56.2-0.9,84.3-1c28.8-0.2,57.6-1.5,86.4-1.1c23.6,0.3,47.3-0.5,70.9-0.9c27.3-0.4,54.6-0.6,81.9-0.9
		c45.7-0.5,91.3-0.2,137-0.2c7,0,14,0.1,21-0.1c2.9-0.1,3.7,0.9,3.6,3.7c-0.2,4.5,0,9-0.1,13.5c0,2.1,0.6,3,2.8,2.9
		c18.3-0.1,36.7-0.1,55,0c2.8,0,3.3-1.2,3.2-3.6c-0.2-4.3,0.1-8.7-0.1-13c-0.1-2.5,0.6-3.6,3.3-3.5c3.8,0.2,7.7,0.2,11.5,0
		c3.1-0.2,4.3,0.6,4.4,4c0.1,4.2,1.3,8.5,1.9,12.7c0.4,2.2,1.2,3.5,3.8,3.4c6.7-0.2,13.3-0.2,20,0c2.8,0.1,3.8-1.1,4.1-3.7
		c0.5-4.1,1.5-8.1,1.6-12.2c0.1-4.1,2.2-4.2,5.4-4.2c36,0.1,72,0.1,108,0.1c0-1.3,0-2.7,0-4c-34.8-0.1-69.6-0.2-104.5-0.3
		C1807.9,834.7,1808.1,834.6,1808.8,827.2z M1801.7,827.7c-0.3,0.2-0.6,0.3-0.9,0.5c-5.2,3.2-4.7,8.4-5.6,13.6
		c-0.5,3.4-1.7,7.6-1.5,10.4c0.3,5.7-2.7,3.7-5.1,3.9c-4,0.4-5.3-1.3-5.7-5.3c-0.7-7.5-2.1-14.9-3.5-22.3c-0.6-2.9,0.3-3.6,2.9-3.5
		c3,0.1,6,0,9,0c3.2,0,6.3,0,9.5,0c0.7,0,1.7-0.3,2.1,0.7C1803.1,826.8,1802.4,827.3,1801.7,827.7z M1745,856.1
		c-2.9-0.1-5.4,0.5-5.1-4.1c0.4-8.5,0.1-16.9,0.1-25.4c-0.1,0-0.2,0-0.3,0c0-8.8,0-17.6,0-26.4c0-0.8-0.4-1.5,0.7-2
		c4-2,8.6,0.5,8.7,4.9c0.3,16.3,0.4,32.5,1,48.8C1750.2,856.2,1748.1,856.1,1745,856.1z M1701,852.3c0.4-17.4,0.9-34.8,1.2-52.3
		c0.1-2.4,1.2-3.1,3.5-3c7.5,0.1,15,0.1,22.5,0.1c3.4,0,4.8,1.3,5.3,4.8c1.2,8.6,0.1,17.3,0.7,26.2c-0.8,8.3,0.9,16.9-1,25.5
		c-0.4,1.9-1,2.4-2.8,2.4c-9-0.4-17.9-0.7-26.9-0.9C1701.4,855,1700.9,854.1,1701,852.3z M317.9,643.1c9.2-1.4,18.4-2,27.4,1
		c-8.7,2.7-17.4,1.5-26.1,1.9c-1,0-2.1,0.1-2.1-1.3C317,644.1,317.5,643.1,317.9,643.1z M351.3,649.9c4.2,4.7,4.1,13.3,0,17.9
		C351.3,661.8,351.3,656.1,351.3,649.9z M197.9,655.7c0,4.2-0.1,8.3,0,12.5c0.1,3.1-1.7,2.9-3.8,3c-2.2,0-3.9,0-3.8-3
		c0.1-8.5,0.1-16.9,0-25.4c-0.1-3.2,1.8-3.3,4.2-3.4c2.5,0,3.6,0.7,3.5,3.4C197.8,647,197.9,651.4,197.9,655.7z M186.7,634.4
		c3.7-8.7,12.5-11.7,29.4-9.6C206.5,634.3,205.3,634.7,186.7,634.4z M169.3,635c-4.2-0.7-8.6-0.1-12.7-0.1
		c7.7-9.9,18.4-11.1,30.1-9.5C182.2,631,177.9,636.4,169.3,635z M74.8,636.3c0.1-0.8,0-1.7,0-2.5c-0.6-37.1-1-74.3-2-111.4
		c-0.3-11.3-0.1-22.6-0.7-33.9c-0.2-4.2,0.7-5.6,5.3-5.7c33.6-0.8,67.3-0.7,100.9-0.8c36.8-0.2,73.6-0.4,110.4-0.8
		c4.4-0.1,5.4,1.4,5.1,5.4c-1.6,18.9,0,37.9,0.5,56.8c0.8,27.9,2.4,55.8,2.9,83.8c0.1,4.5-0.9,6.2-5.7,5.9
		c-5.9-0.4-11.9-0.1-19.3-0.1c4.8-4,6.3-9.6,12.5-9.9c2.4-0.1,2.6-2.2,2.5-4.2c-0.2-17.1-0.4-34.3-0.6-51.4
		c-0.2-13.3-0.5-26.6-0.8-40c-0.2-10.8-0.6-21.6-0.7-32.4c0-3-1.2-4.1-4.1-4.2c-27-1.2-53.9-1.2-80.9-0.1
		c-22.1,0.9-44.3,1.3-66.4,1.9c-16.1,0.4-32.3,0.9-48.4,1c-4.4,0-5.7,1.5-5.7,5.8c0.3,18,0.3,36,0.6,54c0.4,23.3,1.1,46.6,1.5,69.9
		c0.1,4.1,1.5,5.3,5.4,4.9c4.1-0.4,8.3-0.4,12.6-0.2c-6.5,5.4-11.9,12.6-22,11.3C75.6,639,74.6,638.4,74.8,636.3z M127.8,621.2
		c-12.1,0.2-24.2,0.9-36.3,1.6c-3.6,0.2-4.8-0.7-4.9-4.6c-0.1-23.3-0.2-46.6-1.1-69.9c-0.6-15-0.2-29.9-0.8-44.9
		c-0.1-3.7,0.9-4.8,4.7-4.8c15.3-0.1,30.6-0.2,45.9-0.9c34.4-1.5,68.8-2.4,103.3-2.8c12.8-0.2,25.6,0.6,38.4,0.8c2.5,0,3.2,1,3,3.3
		c-0.1,0.8,0,1.7,0,2.5c0.4,28,0.6,55.9,1.3,83.8c0.2,9.5,0.2,19,0.6,28.4c0.1,3.3-0.8,4.2-4.1,4.2c-30.9,0.1-61.9,0.8-92.8,3.1
		C166,621.2,146.9,621,127.8,621.2z M128.5,626.9c-8,10.5-19,11.6-30.8,10.8C104.6,628.2,110.3,626.2,128.5,626.9z M273.6,623.5
		c-4.1,6.2-7.9,10.9-15.8,9.6c-4.5-0.7-9.1-0.1-13.8-0.1C251.3,621.3,262.3,623.6,273.6,623.5z M244.5,624
		c-7.2,12.1-19,8.5-29.5,9.7C222.1,621.8,233.6,624.1,244.5,624z M157.6,626.3c-7.5,11.3-19.3,10.4-30.8,9.9
		C134.7,625.2,146,624.9,157.6,626.3z M45.3,633.4c-0.9-4.1,1.2-5.4,3.1-8.1C48.1,628.7,46.7,630.4,45.3,633.4z M39.9,636.3
		c0,1.2,0.8,2.8-1.1,3.4c-1.6,0.4-2.9,0-3.8-1.6c-3.4-6.1-8.7-11.4-7-19.6c0.5-2.1-0.2-4,2.9-3.7c1.6,0.2,2.6-1.1,2.6-2.4
		c0.1-1.4-0.9-2.4-2.6-2.5c-1.1-0.1-2.6,0.2-2.5-1.6c0-1.8,1.5-1.4,2.6-1.4c1.5,0,2.7-0.4,2.9-2.1c0.3-1.9-0.9-2.7-2.6-2.9
		c-1.2-0.2-2.5-0.2-2.5-1.8c0.1-1.8,1.6-1.2,2.7-1.3c1.8-0.1,3.2-1.2,3-2.7c-0.2-3-3.3-2-5.6-3c3.6-1.8,7-1,10.2-1
		c1.8,0,1.3,1.5,1.2,2.6C39.1,608.7,39.8,622.5,39.9,636.3z M29.9,639.7c-2.6,0.9-3.4-0.4-4.2-1.7c-2.5-4.1-5-8.2-7.5-12.4
		c-0.6-0.9-1.5-2.1,0-3c1.7-1,1.9,0.7,2.4,1.5C23.8,629.2,26.8,634.4,29.9,639.7z M45.9,682.7c-0.1,2.2-1.5,2.3-3.1,2.2
		c-7-0.1-14-0.2-21-0.1c-2.6,0-3.1-1.2-3-3.4c0.1-4.2,0-8.3,0-12.5c0,0-0.1,0-0.1,0c0.3-6.8,0.7-13.6,0.9-20.4
		c0.1-2.5,0.7-3.6,3.4-3.5c7.2,0.1,14.3,0,21.5-0.3c2.7-0.1,3.8,0.6,3.8,3.6C48.1,659.8,46.7,671.2,45.9,682.7z M227.9,684
		c0.8,3.2-0.8,4.2-4,4.1c-20.4-0.4-40.9-0.8-61.4-0.9c-3.9,0-4-2-3.6-4.6c0.4-2.7-1.6-6.7,4-6.5c10.3,0.3,20.6,0.1,30.9,0.1
		c0,0.3,20.3,1,30.4,0.8C230.5,676.8,227.3,681.4,227.9,684z M266.7,687.3c2.4-4.9,6-6.5,10.1-6.3c4.1,0.3,8.2,1.2,10.1,6.3
		C280.3,687.3,274,687.3,266.7,687.3z M344.8,690.1c-8.5,0-17,0-25.5,0c0-0.6,0-1.2,0-1.7c3.4-1.3,7.1-0.3,10.6-0.5
		c4.6-0.3,9.3-0.3,13.9-0.5c1.3-0.1,2.4-0.1,2.6,1.5C346.6,690,345.7,690.1,344.8,690.1z M345.2,681.3c-2.8,2.5-9.1,1.1-13.9,1.4
		c-12.5,0.6-12.7,0.3-13.2-12.1c-0.2-5-0.6-9.9-1.1-14.9c-0.3-3.2,0.4-4.8,4.2-4.7c6.8,0.1,13.5-0.5,20.3-0.4c3.9,0.1,4.9,1.4,4.6,5
		c-0.3,3.8-0.1,7.6-0.1,12.6C345.6,671.9,348.5,678.3,345.2,681.3z M273.7,705.2c19.8,0.3,39.6,0.6,59.3,0.9c1.6,0,4.2-1.1,4.3,1.8
		c0.1,3-2.6,1.9-4.2,1.9c-10,0.1-20,0-30,0c0,0,0,0,0,0.1c-9.8,0-19.6,0-29.5,0c-1.6,0-3.9,0.9-3.8-2.3
		C270,704.7,271.9,705.1,273.7,705.2z M322.1,799.5c-0.4,0-0.9,0-1.3,0c0,26.1-0.1,52.3,0.1,78.4c0,4.7-0.6,6.9-6.1,6.6
		c-9.3-0.4-18.6,0-28,0.2c-2.5,0.1-3.3-0.6-3.3-3.4c0.3-47.8,0.5-95.5,0.7-143.3c0-6.6,0.5-13.3,0.7-19.9c0-2.3,0.8-3.2,3.2-3.2
		c10.3,0.1,20.7,0.1,31-0.1c3,0,3,1.5,3,3.8C322.1,745.5,322.1,772.5,322.1,799.5z"/>
	<path class="st0" d="M1920,183c-14.5,0-29,0-43.5,0.1c-80.3,0.5-160.6-1-240.9,0.5c-4.6,0.1-6.3,1-6.4,6.1
		c-0.3,59.3-0.5,118.6,0,178c0,4.8,1.5,6.4,6.3,6.4c27.7-0.2,55.3,0,83,0c67.2,0,134.3,0,201.5,0c0-1.3,0-2.7,0-4
		c-77.9,0-155.9,0-233.8,0c-16.8,0-33.6,0-50.6,0c0.8-3.3,3-4.9,6.8-4.8c6.3,0.2,12.6,0.5,19,0.5c29.5-0.1,58.9-0.4,88.4-0.4
		c49.6-0.1,99.2-0.1,148.8,0c7.1,0,14.3,0.5,21.4,0.8c0-1.3,0-2.7,0-4c-3.8-0.1-5.9-1.6-4.9-5.8c0.2-1,0.1-2,0.1-3
		c0-2.1,0-4.6-2.6-4.5c-2.6,0-2.5,2.6-2.6,4.6c-0.4,8.6-0.4,8.6-9.2,8.6c-0.3,0-0.7,0-1,0c-3.3-0.1-7.3,0.9-9.7-0.6
		c-2.5-1.6-0.4-5.9-0.8-8.9c-0.2-1.8-0.5-3.7-2.5-3.7c-2.4-0.1-2.6,2-2.8,3.9c-0.8,9.4-0.8,9.4-10,9.4c-0.5,0-1,0-1.5,0
		c-8.8,0-8.9,0-9.2-8.8c-0.1-2-0.1-4.5-2.8-4.4c-2.3,0-2.4,2.3-2.5,4.2c-0.6,9.1-0.6,9.1-9.8,9c-0.7,0-1.3,0-2,0
		c-8.7,0-8.7,0-8.9-8.6c-0.1-2,0.1-4.6-2.6-4.6c-2.7-0.1-2.6,2.5-2.7,4.5c-0.5,8.7-0.5,8.7-9.1,8.7c-0.5,0-1,0-1.5,0
		c-3.3-0.3-7.3,1.4-9.6-0.8c-2-1.8-0.3-5.7-0.5-8.6c-0.1-1.9-0.4-4-2.8-3.9c-2,0.1-2.2,2-2.4,3.8c-0.9,9.5-0.9,9.5-10.4,9.5
		c-0.5,0-1,0-1.5,0c-8.5,0-8.6,0-8.9-8.7c-0.1-2.1,0-4.6-2.6-4.6c-2.6,0-2.5,2.6-2.6,4.6c-0.4,8.7-0.4,8.7-9.2,8.7c-0.3,0-0.7,0-1,0
		c-3.4-0.3-7.6,1.4-10.1-0.8c-1.9-1.7-0.3-5.7-0.5-8.7c-0.1-1.8-0.4-3.7-2.4-3.8c-2.4-0.1-2.6,1.9-2.8,3.9
		c-0.8,9.4-0.8,9.5-10.5,9.4c-3.3,0-7.3,1.3-9.7-0.6c-2.1-1.8-0.4-5.6-0.6-8.6c-0.1-1.9-0.4-4.1-2.7-4c-2.3,0.1-2.4,2.2-2.6,4.2
		c-0.6,9.1-0.6,9.1-9.8,9.1c-0.7,0-1.3,0-2,0c-8.8,0-8.8,0-9-8.5c-0.1-2,0.1-4.6-2.5-4.7c-2.7-0.2-2.6,2.4-2.7,4.4
		c-0.5,8.8-0.5,8.8-9.5,8.8c-0.3,0-0.7,0-1,0c-3.2-0.1-7,1-9.3-0.4c-2.7-1.7-0.5-5.8-0.9-8.9c-0.2-1.9-0.4-4-2.8-4
		c-2,0-2.4,1.9-2.5,3.7c0,2.2-0.3,4.3-0.1,6.5c0.2,2.5-0.9,3.3-3.2,3c-8.8-1.1-17.6-0.5-26.4,0c-3.1,0.2-4.3-0.6-4.2-4
		c0.2-10.8,0.1-21.7,0.1-32.5c0-8.7,0-8.7,8.3-9.3c1.9-0.1,4.1-0.4,4-2.7c-0.1-2.3-2.3-2.4-4.2-2.5c-8.2-0.5-8.2-0.6-8.2-8.8
		c0-0.8,0-1.7,0-2.5c0-8.1,0-8.1,8.1-8.5c1.9-0.1,4.1-0.2,4.2-2.5c0.2-2.4-2-2.6-3.9-2.8c-8.4-0.7-8.4-0.7-8.4-9c0-0.8,0-1.7,0-2.5
		c0-7.9,0-7.9,7.9-8.3c2.1-0.1,4.5,0,4.5-2.7c0-2.3-2.3-2.4-4.2-2.5c-8.2-0.5-8.2-0.6-8.2-8.8c0-0.5,0-1,0-1.5
		c0-2.8-0.9-6.2,0.3-8.4c1.6-3,5.4-0.6,8.2-1.1c1.7-0.3,3.7-0.5,3.8-2.5c0.1-2.4-2-2.6-3.9-2.8c-8.5-0.7-8.5-0.7-8.5-9.5
		c0-0.5,0-1,0-1.5c0-8.2,0-8.3,8.3-8.8c1.9-0.1,4.1-0.4,4.1-2.7c0-2.3-2.2-2.4-4.1-2.6c-8.2-0.6-8.2-0.6-8.2-8.7
		c0-1.2,0-2.3-0.1-3.5c-0.2-2.3,0.7-3.2,3.2-3.1c7.1,0.3,14.3,0.4,21.5,0.4c84.5,0,169,0,253.5,0c0-1.3,0-2.7,0-4
		c-48.6-0.1-97.2-0.1-145.8-0.2c-45,0-90.1,0-135.1,0c0,0,0,0-0.1,0c0,0,0,0,0,0c0,0,0,0,0,0c0,0,0,0,0,0.1c0,0,0,0,0,0c0,0,0,0,0,0
		s0,0,0,0c0,0,0,0,0,0c0,0-0.1,0-0.1,0.1c0,0,0,0.1,0,0.1c-2.1,41.3-0.3,82.7-0.8,124c-0.2,14.1-0.2,28.3,0,42.4c0,3.6-0.7,6-4.7,7
		c0-58.4,0-116.7,0-175.2c1.8-0.1,2.7,2.3,4.4,2.2c0.4,0,0.8-0.2,1.2-0.5c0,0,0-0.1,0-0.1c0,0,0,0,0,0c0,0,0,0,0.1,0
		c-0.2-1.9-1.6-3.1-4.4-4.9c96.1,0,190.7,0,285.4,0C1920,185.7,1920,184.3,1920,183z"/>
	<path class="st0" d="M1913.7,238c-1.8-3.3-5.8-3.1-7.6,0.1c-1.1,2-2.2,3.6-4.1,4.9c-12.7,9.1-25.8,17.8-37.5,28.2
		c-1.8,1.6-4.1,2.5-5.8,0.7c-4.3-4.3-10.2-6.8-13.6-12.3c-2.1-3.4-5.9-3.3-7.4,0.4c-1.1,2.7-3.1,4.2-5.2,5.8
		c-4.7,3.8-9.4,7.4-14,11.2c-12.2,10.2-21.6,23.1-32.8,34.3c-3.3,3.2-5.4,8.8-9.7,9.5c-4.7,0.7-8.3-4.2-12.2-6.9
		c-10.2-7.1-21.2-13.2-29.9-22.3c-2.4-2.5-5.2-1.6-6.7,1.1c-1.8,3.3-4.5,5.3-7.4,7.2c-7.4,4.8-14.9,9.5-22.5,14
		c-14,8.3-28,16.7-41.3,26.2c-1.3,1-3.8,2.1-1.9,4.2c1.5,1.7,2.9-0.1,4.3-1c6-4,11.9-8,17.9-11.9c16.4-10.8,34-19.6,50-31.1
		c3.3-2.3,7.2-2.7,11,0c9.9,7,20,13.8,30,20.7c2.2,1.5,4.3,3,4.8,6c0.3,1.9,2,3.1,4.1,3c2.1-0.1,3.8-1.3,3.9-3.2
		c0.3-4.3,3.3-6.8,5.8-9.6c4.1-4.6,8.7-8.8,12.6-13.5c11.2-13.5,23.9-25.5,38.1-35.9c1.7-1.3,3.4-2.2,5.5-1.8
		c7.1,1.3,11.8,6,15.3,12c1.1,1.9,2.2,3.3,4.6,3.2c2.1-0.1,3.7-1.3,3.9-3.2c0.3-3.1,2.4-4.6,4.4-6.3c11.1-9.4,23.2-17.3,34.8-26
		c2.5-1.9,5.4-2.1,8.1-1.4c2.5,0.7,4.7,2.4,7,3.7c0-1.7,0-3.3,0-5C1917.3,242.1,1915.1,240.7,1913.7,238z"/>
	<path class="st0" d="M57.7,476.8c3.6,0.2,4.8-1.1,3.5-4.8c-1.6-4.7-4.6-8-9.1-10c-5.7-2.6-11.7-3.7-17.9-3.9
		c-11.5-0.3-22.9,0.2-34.3,1.9c0,1.7,0,3.3,0,5c13.4-1.2,26.7-3.1,40.3-1.1c7.8,1.2,11.5,2.7,14.8,7.2c-18.5,0.3-36.8,1.3-55.1,2.9
		c0,1.7,0,3.3,0,5c9.6-0.6,19.2-1.3,28.8-1.8C38.4,476.6,48.1,476.1,57.7,476.8z"/>
	<path class="st0" d="M324,622.4c-2.2,4-1.2,9.4,1.7,12c0.9,0.8,1.9,1.4,3.1,0.7c1.2-0.7,1.9-1.9,1.1-2.9
		c-4.6-6.1-0.4-10.1,3.2-14.3c2.3-2.7,4.3-5.5,4.2-9.3c-0.1-3.9-1.6-7.4-3.2-10.9c-0.6-1.3-1.7-2.2-3.2-1.5c-1.7,0.7-2,2-1.2,3.7
		c0.5,1,0.7,2.2,1.2,3.3c2.1,4.4,1.5,8.2-1.8,11.9C327.1,617.2,325.4,619.7,324,622.4z"/>
	<path class="st0" d="M322.5,617.4c3.4-2.2,5-5.1,3.7-9.3c-0.8-2.5-2.2-4.9-0.5-7.6c0.9-1.4-0.1-2.6-1.4-3.2c-1.2-0.6-2.3,0.1-3,1
		c-1.6,2.1-2.3,4.4-1.3,7c0.6,1.6,1,3.2,1.6,4.9c-0.1,1.5-1,2.6-2.1,3.6c-1.1,1-1.7,2.1-0.4,3.4
		C320.1,618.4,321.3,618.2,322.5,617.4z"/>
</g>
</svg>
