<?xml version="1.0" encoding="utf-8"?>
<!-- Generator: Adobe Illustrator 21.1.0, SVG Export Plug-In . SVG Version: 6.00 Build 0)  -->
<svg version="1.1" id="Layer_1" xmlns="http://www.w3.org/2000/svg" xmlns:xlink="http://www.w3.org/1999/xlink" x="0px" y="0px"
	 viewBox="0 0 105 60" style="enable-background:new 0 0 105 60;" xml:space="preserve">
<style type="text/css">
	.st0{fill:#332d3e;}
</style>
<g id="logo_white_15_">
	<g id="XMLID_881_">
		<path id="XMLID_899_" class="st0" d="M57.5,15.6h4.3c2.1,0,3.6,1.2,3.6,3.2c0,1.2-0.6,2.2-1.5,2.7v0c1.3,0.4,2.1,1.6,2.1,3
			c0,2.3-1.8,3.5-4,3.5h-4.4V15.6z M61.8,20.8c1.1,0,1.8-0.8,1.8-1.9c0-1.1-0.7-1.8-1.8-1.8h-2.6v3.7H61.8z M62,26.5
			c1.3,0,2.1-0.8,2.1-2.1c0-1.2-0.8-2.1-2.1-2.1h-2.8v4.2H62z"/>
		<path id="XMLID_896_" class="st0" d="M73.6,15.4c3.7,0,6.4,2.8,6.4,6.3c0,3.7-2.7,6.5-6.4,6.5c-3.7,0-6.4-2.8-6.4-6.5
			C67.2,18.1,69.9,15.4,73.6,15.4z M73.6,26.6c2.6,0,4.6-2.1,4.6-4.9c0-2.7-1.9-4.7-4.6-4.7C70.9,17,69,19,69,21.7
			C69,24.5,70.9,26.6,73.6,26.6z"/>
		<path id="XMLID_893_" class="st0" d="M87.6,15.4c3.7,0,6.4,2.8,6.4,6.3c0,3.7-2.7,6.5-6.4,6.5c-3.7,0-6.4-2.8-6.4-6.5
			C81.2,18.1,83.9,15.4,87.6,15.4z M87.6,26.6c2.6,0,4.6-2.1,4.6-4.9c0-2.7-1.9-4.7-4.6-4.7C85,17,83,19,83,21.7
			C83,24.5,85,26.6,87.6,26.6z"/>
		<path id="XMLID_891_" class="st0" d="M96,15.6h1.7v5.2h1.8l3.1-5.2h1.9l-3.6,5.9v0l3.8,6.5h-2l-3.3-5.7h-1.8V28H96V15.6z"/>
		<path id="XMLID_887_" class="st0" d="M57.5,32.5h4.3c2.1,0,3.6,1.2,3.6,3.2c0,1.2-0.6,2.2-1.5,2.7v0c1.3,0.4,2.1,1.6,2.1,3
			c0,2.3-1.8,3.5-4,3.5h-4.4V32.5z M61.8,37.7c1.1,0,1.8-0.8,1.8-1.9c0-1.1-0.7-1.8-1.8-1.8h-2.6v3.7H61.8z M62,43.4
			c1.3,0,2.1-0.8,2.1-2.1c0-1.2-0.8-2.1-2.1-2.1h-2.8v4.2H62z"/>
		<path id="XMLID_884_" class="st0" d="M73.6,32.3c3.7,0,6.4,2.8,6.4,6.3c0,3.7-2.7,6.5-6.4,6.5c-3.7,0-6.4-2.8-6.4-6.5
			C67.2,35,69.9,32.3,73.6,32.3z M73.6,43.5c2.6,0,4.6-2.1,4.6-4.9c0-2.7-1.9-4.7-4.6-4.7c-2.7,0-4.6,2.1-4.6,4.7
			C69,41.4,70.9,43.5,73.6,43.5z"/>
		<path id="XMLID_882_" class="st0" d="M84.1,38.5l-3.7-6h2l2,3.4c0.4,0.7,0.8,1.5,0.8,1.5h0c0,0,0.4-0.8,0.8-1.5l2-3.4h2l-3.7,6
			l3.9,6.4h-2L86,41.1c-0.4-0.7-0.8-1.4-0.8-1.4h0c0,0-0.4,0.7-0.8,1.4l-2.2,3.8h-1.9L84.1,38.5z"/>
	</g>
	<path id="XMLID_878_" class="st0" d="M26,0L0,15v30l26,15l26-15v-7.7v-7.5v-5.2v-7.5V15L26,0z M47,29.7c0,0-15.1,8.7-20.2,11.6
		c-0.2,0.1-0.9,2.5-0.9,5.5c0,2.9,0.7,5.1,0.9,5C31.1,49.3,41,43.6,47,40.1v2L26,54.3L4.9,42.2V17.8L26,5.7l20.3,11.7
		c-2.5,1.4-14.9,8.5-19.4,11.2c-0.1,0.1-0.9,1.9-0.9,5.7c0,3.1,0.8,4.9,0.9,4.8C31.2,36.6,41,30.9,47,27.4V29.7z"/>
</g>
</svg>
