<svg xmlns="http://www.w3.org/2000/svg" width="156" height="165" viewBox="0 0 156 165">
  <metadata><?xpacket begin="﻿" id="W5M0MpCehiHzreSzNTczkc9d"?>
<x:xmpmeta xmlns:x="adobe:ns:meta/" x:xmptk="Adobe XMP Core 5.6-c138 79.159824, 2016/09/14-01:09:01        ">
   <rdf:RDF xmlns:rdf="http://www.w3.org/1999/02/22-rdf-syntax-ns#">
      <rdf:Description rdf:about=""/>
   </rdf:RDF>
</x:xmpmeta>
                                                                                                    
                                                                                                    
                                                                                                    
                                                                                                    
                                                                                                    
                                                                                                    
                                                                                                    
                                                                                                    
                                                                                                    
                                                                                                    
                                                                                                    
                                                                                                    
                                                                                                    
                                                                                                    
                                                                                                    
                                                                                                    
                                                                                                    
                                                                                                    
                                                                                                    
                                                                                                    
                           
<?xpacket end="w"?></metadata>
<defs>
    <style>
      .cls-1 {
        fill: #f86b54;
        fill-rule: evenodd;
      }
    </style>
  </defs>
  <path id="Forma_1" data-name="Forma 1" class="cls-1" d="M773.105,7620h68.421a2.75,2.75,0,0,0,0-5.5H773.105A2.75,2.75,0,0,0,773.105,7620Zm0-22h27.369a2.75,2.75,0,0,0,0-5.5H773.105A2.75,2.75,0,0,0,773.105,7598Zm0,44h68.421a2.75,2.75,0,0,0,0-5.5H773.105A2.75,2.75,0,0,0,773.105,7642Zm46.527,16.5H773.105a2.75,2.75,0,0,0,0,5.5h46.527A2.75,2.75,0,0,0,819.632,7658.5Zm-8.211,22H773.105a2.75,2.75,0,0,0,0,5.5h38.316A2.75,2.75,0,0,0,811.421,7680.5Zm60.211-32v-54.39L831.712,7554H743v165H863.421A35.748,35.748,0,0,0,871.632,7648.5Zm-38.316-85.11,28.972,29.11H833.316v-29.11Zm11.161,150.11h-96v-154h79.368V7598h38.316v49.62c-0.936-.08-1.845-0.12-2.737-0.12a35.707,35.707,0,0,0-35.579,35.75c0,1.1.069,2.18,0.164,3.25q0.033,0.375.074,0.75c0.118,1.05.268,2.09,0.474,3.11,0.024,0.12.057,0.24,0.082,0.36,0.2,0.93.435,1.84,0.7,2.75,0.069,0.22.132,0.45,0.2,0.67q0.463,1.455,1.04,2.85c0.074,0.18.156,0.35,0.23,0.52,0.353,0.82.736,1.61,1.146,2.39,0.1,0.19.192,0.38,0.293,0.57q0.719,1.3,1.544,2.55c0.126,0.19.257,0.37,0.386,0.56,0.5,0.72,1.026,1.43,1.576,2.11,0.1,0.13.2,0.27,0.309,0.4,0.633,0.76,1.3,1.49,1.993,2.2,0.169,0.17.342,0.34,0.517,0.51,0.671,0.66,1.357,1.3,2.077,1.9,0.063,0.05.123,0.11,0.189,0.16,0.772,0.64,1.579,1.24,2.406,1.81,0.2,0.14.4,0.28,0.6,0.41S844.266,7713.37,844.477,7713.5Zm18.944,0a30.25,30.25,0,0,1,0-60.5c0.854,0,1.7.06,2.534,0.13,0.8,0.08,1.621.18,2.488,0.33l1.213,0.2A30.262,30.262,0,0,1,863.421,7713.5Zm14.174-45.57-15.315,22.11-10.808-8.92a2.726,2.726,0,0,0-3.851.39,2.755,2.755,0,0,0,.381,3.87l13.1,10.8a2.758,2.758,0,0,0,1.735.62,2.37,2.37,0,0,0,.375-0.02,2.754,2.754,0,0,0,1.872-1.15l17.007-24.56a2.762,2.762,0,0,0-.684-3.83A2.724,2.724,0,0,0,877.6,7667.93Z" transform="translate(-743 -7554)"/>
</svg>
