<svg xmlns="http://www.w3.org/2000/svg" width="40" height="40.03" viewBox="0 0 40 40.03">
  <metadata><?xpacket begin="﻿" id="W5M0MpCehiHzreSzNTczkc9d"?>
<x:xmpmeta xmlns:x="adobe:ns:meta/" x:xmptk="Adobe XMP Core 5.6-c138 79.159824, 2016/09/14-01:09:01        ">
   <rdf:RDF xmlns:rdf="http://www.w3.org/1999/02/22-rdf-syntax-ns#">
      <rdf:Description rdf:about=""/>
   </rdf:RDF>
</x:xmpmeta>
                                                                                                    
                                                                                                    
                                                                                                    
                                                                                                    
                                                                                                    
                                                                                                    
                                                                                                    
                                                                                                    
                                                                                                    
                                                                                                    
                                                                                                    
                                                                                                    
                                                                                                    
                                                                                                    
                                                                                                    
                                                                                                    
                                                                                                    
                                                                                                    
                                                                                                    
                                                                                                    
                           
<?xpacket end="w"?></metadata>
<defs>
    <style>
      .cls-1 {
        fill: #f86b54;
        fill-rule: evenodd;
      }
    </style>
  </defs>
  <path id="icon_copy" data-name="icon copy" class="cls-1" d="M587.968,7794.1a0.686,0.686,0,0,0-.037-0.22,1.086,1.086,0,0,0-.4-0.61l-5.726-4.26v-4.57a1.062,1.062,0,0,0-1.024-1.1h-6.587l-5.605-4.17a0.969,0.969,0,0,0-1.166,0l-5.641,4.17H555.22a1.063,1.063,0,0,0-1.024,1.1v4.52l-5.753,4.25a1.129,1.129,0,0,0-.441.89,0.136,0.136,0,0,0,0,.02l0.03,23.78a1.146,1.146,0,0,0,.3.78,1.012,1.012,0,0,0,.724.32h0l37.919-.06a1.058,1.058,0,0,0,1.023-1.09Zm-6.166-2.42,3.274,2.44-3.274,2.44v-4.88ZM568,7781.4l2.6,1.94h-5.219Zm-11.755,4.14h23.509v12.54l-7.893,5.88-3.218-2.68a0.014,0.014,0,0,1-.015-0.01,0.981,0.981,0,0,0-1.241.01l-3.242,2.7-7.9-5.85v-12.59Zm-2.049,6.08v4.99l-3.37-2.49Zm-4.145,4.59,12.4,9.18-12.371,10.28Zm2,20.59,15.962-13.26,15.9,13.21Zm21.5-11.43,12.365-9.21,0.025,19.5Zm1.377-15.45h-13.87a1.1,1.1,0,0,0,0,2.2h13.87A1.1,1.1,0,0,0,574.934,7789.92Zm0,5.71h-13.87a1.1,1.1,0,0,0,0,2.19h13.87A1.1,1.1,0,0,0,574.934,7795.63Z" transform="translate(-548 -7778.97)"/>
</svg>
