<svg xmlns="http://www.w3.org/2000/svg" width="40" height="41" viewBox="0 0 40 41">
  <metadata><?xpacket begin="﻿" id="W5M0MpCehiHzreSzNTczkc9d"?>
<x:xmpmeta xmlns:x="adobe:ns:meta/" x:xmptk="Adobe XMP Core 5.6-c138 79.159824, 2016/09/14-01:09:01        ">
   <rdf:RDF xmlns:rdf="http://www.w3.org/1999/02/22-rdf-syntax-ns#">
      <rdf:Description rdf:about=""/>
   </rdf:RDF>
</x:xmpmeta>
                                                                                                    
                                                                                                    
                                                                                                    
                                                                                                    
                                                                                                    
                                                                                                    
                                                                                                    
                                                                                                    
                                                                                                    
                                                                                                    
                                                                                                    
                                                                                                    
                                                                                                    
                                                                                                    
                                                                                                    
                                                                                                    
                                                                                                    
                                                                                                    
                                                                                                    
                                                                                                    
                           
<?xpacket end="w"?></metadata>
<defs>
    <style>
      .cls-1 {
        fill: #f86b54;
        fill-rule: evenodd;
      }
    </style>
  </defs>
  <path id="icon_copy" data-name="icon copy" class="cls-1" d="M461.273,7810.89l-8-8.2a2.407,2.407,0,0,0-3.463,0l-2.08,2.13a2.553,2.553,0,0,0-.62,2.47l-0.785.81h0c-0.557.57-4.028-.31-8.224-4.61s-5.052-7.86-4.494-8.43h0l0.786-.8a2.6,2.6,0,0,0,.679.09,2.406,2.406,0,0,0,1.732-.73l2.08-2.13a2.558,2.558,0,0,0,0-3.55l-8-8.2a2.4,2.4,0,0,0-3.464,0l-2.08,2.13a2.553,2.553,0,0,0-.62,2.47s-0.665.69-.7,0.73c-2.213,2.52-2.628,6.5-1.161,11.24a35.959,35.959,0,0,0,8.721,13.87,34.908,34.908,0,0,0,13.522,8.94,16.579,16.579,0,0,0,5.072.88,8.329,8.329,0,0,0,6.167-2.34l0.437-.45a2.57,2.57,0,0,0,.68.1,2.383,2.383,0,0,0,1.732-.74l2.08-2.13A2.558,2.558,0,0,0,461.273,7810.89Zm-32.12-29.38,8,8.2-2.079,2.14v-0.01l-0.03-.03-3.969-4.07-4-4.1Zm25.46,34.37h0c-1.762,1.81-4.876,2.11-8.768.84a32.337,32.337,0,0,1-12.531-8.32,33.352,33.352,0,0,1-8.117-12.85c-1.234-3.99-.943-7.18.819-8.99h0l0.221-.22,6.208,6.36-0.57.59h0c-2.36,2.42.475,7.86,4.5,11.98,3.008,3.08,6.737,5.49,9.413,5.49a3.053,3.053,0,0,0,2.274-.89h0l0.569-.58,6.208,6.36Zm2.849-1.08-8-8.2,2.08-2.13,8,8.2Z" transform="translate(-422 -7779)"/>
</svg>
