<?xml version="1.0" encoding="utf-8"?>
<!-- Generator: Adobe Illustrator 21.1.0, SVG Export Plug-In . SVG Version: 6.00 Build 0)  -->
<svg version="1.1" id="Layer_1" xmlns="http://www.w3.org/2000/svg" xmlns:xlink="http://www.w3.org/1999/xlink" x="0px" y="0px"
	 viewBox="0 0 127 165" style="enable-background:new 0 0 127 165;" xml:space="preserve">
<style type="text/css">
	.st0{fill:#F86B54;}
</style>
<g>
	<path class="st0" d="M63.5,130.2c6.4,0,11.6-5.2,11.6-11.5c0,0,0,0,0,0v-17.4c0-6.4-5.2-11.6-11.5-11.6v0
		c-6.4,0-11.6,5.2-11.6,11.6v17.4C51.9,125.1,57.1,130.2,63.5,130.2z M57.7,101.3c0-3.2,2.6-5.8,5.8-5.8s5.8,2.6,5.8,5.8v17.4
		c0,3.2-2.6,5.8-5.8,5.8s-5.8-2.6-5.8-5.8V101.3z"/>
	<path class="st0" d="M98.1,66.6v-33C98.1,15.1,82,0,62.1,0S26,15.1,26,33.6v33H0V165h127V66.6H98.1z M31.8,33.6
		c0-15.3,13.6-27.8,30.3-27.8s30.3,12.5,30.3,27.8v33H31.8V33.6z M121.2,159.2H5.8v-11.6h115.5V159.2z M121.2,141.8H5.8h0V72.4
		h115.5V141.8z"/>
</g>
</svg>
