<svg xmlns="http://www.w3.org/2000/svg" width="226" height="165" viewBox="0 0 226 165">
  <metadata><?xpacket begin="﻿" id="W5M0MpCehiHzreSzNTczkc9d"?>
<x:xmpmeta xmlns:x="adobe:ns:meta/" x:xmptk="Adobe XMP Core 5.6-c138 79.159824, 2016/09/14-01:09:01        ">
   <rdf:RDF xmlns:rdf="http://www.w3.org/1999/02/22-rdf-syntax-ns#">
      <rdf:Description rdf:about=""/>
   </rdf:RDF>
</x:xmpmeta>
                                                                                                    
                                                                                                    
                                                                                                    
                                                                                                    
                                                                                                    
                                                                                                    
                                                                                                    
                                                                                                    
                                                                                                    
                                                                                                    
                                                                                                    
                                                                                                    
                                                                                                    
                                                                                                    
                                                                                                    
                                                                                                    
                                                                                                    
                                                                                                    
                                                                                                    
                                                                                                    
                           
<?xpacket end="w"?></metadata>
<defs>
    <style>
      .cls-1 {
        fill: #f86b54;
        fill-rule: evenodd;
      }
    </style>
  </defs>
  <path class="cls-1" d="M581.294,7554H569.971a11.1,11.1,0,0,0-10.85,8.77c-8.693,4.33-51.355,24.46-107.532,31.82a11.247,11.247,0,0,0-7.616,4.54h-9.885A11.075,11.075,0,0,0,423,7610.17v22.57a11.083,11.083,0,0,0,11.088,11.05h9.886a11.2,11.2,0,0,0,7.615,4.53c0.565,0.07,1.125.15,1.687,0.23l17.387,62.36a11.118,11.118,0,0,0,10.683,8.09H505.8a3.525,3.525,0,1,0,0-7.05H504.72l-15.79-56.63c37.126,9.01,63.556,21.52,70.192,24.83a11.089,11.089,0,0,0,10.849,8.76h11.323a11.075,11.075,0,0,0,11.088-11.04V7565.05A11.083,11.083,0,0,0,581.294,7554Zm-139.421,82.73h-7.785a4,4,0,0,1-4.011-3.99v-22.57a4,4,0,0,1,4.011-3.99h7.785v30.55Zm55.5,75.22H481.346a4.027,4.027,0,0,1-3.864-2.93l-16.545-59.34c6.967,1.11,13.694,2.41,20.141,3.82Zm87.931-34.08a4.006,4.006,0,0,1-4.011,3.99H569.971a4,4,0,0,1-4.011-3.99v-82.74a3.539,3.539,0,0,0-7.078,0v77.06a372.645,372.645,0,0,0-106.37-30.86,4.056,4.056,0,0,1-3.563-3.97v-31.81a4.046,4.046,0,0,1,3.563-3.96,372.892,372.892,0,0,0,106.37-30.87v9.37a3.539,3.539,0,0,0,7.078,0v-15.04a4.007,4.007,0,0,1,4.011-4h11.323a4.008,4.008,0,0,1,4.011,4v112.82h0Zm60.156-59.94H607.716a3.525,3.525,0,1,0,0,7.05h37.745A3.525,3.525,0,1,0,645.461,7617.93Zm-8.071-35.47a3.54,3.54,0,0,0-4.646-1.85l-3.775,1.61a3.527,3.527,0,0,0,1.4,6.77,3.439,3.439,0,0,0,1.392-.29l3.775-1.61A3.522,3.522,0,0,0,637.39,7582.46Zm-15.1,6.45a3.54,3.54,0,0,0-4.646-1.85l-11.324,4.83a3.527,3.527,0,0,0,1.4,6.77,3.439,3.439,0,0,0,1.392-.29l11.323-4.83A3.522,3.522,0,0,0,622.292,7588.91Zm13.239,66.91-3.785-1.61a3.527,3.527,0,1,0-2.788,6.48l3.785,1.61a3.444,3.444,0,0,0,1.393.29A3.526,3.526,0,0,0,635.531,7655.82Zm-15.1-6.45-11.318-4.83a3.527,3.527,0,1,0-2.788,6.48l11.318,4.83a3.443,3.443,0,0,0,1.392.29A3.527,3.527,0,0,0,620.428,7649.37Z" transform="translate(-423 -7554)"/>
</svg>
