<?xml version="1.0" encoding="utf-8"?>
<!-- Generator: Adobe Illustrator 21.1.0, SVG Export Plug-In . SVG Version: 6.00 Build 0)  -->
<svg version="1.1" id="Layer_1" xmlns="http://www.w3.org/2000/svg" xmlns:xlink="http://www.w3.org/1999/xlink" x="0px" y="0px"
	 viewBox="0 0 165 378" style="enable-background:new 0 0 165 378;" xml:space="preserve">
<style type="text/css">
	.st0{fill:#F86B54;}
</style>
<g>
	<path class="st0" d="M160.3,323.3c-5.5-3.4-11.7-4.7-18-5.5c-4.4-0.6-8.8-1-13.1-2.6c-11.4-4.4-20.9-12.3-32.1-17
		c-2.2-0.9-1.6-2.6-1.6-4.2c0.1-3.7,1-8.1-1.2-10.7c-3-3.4-2.4-6.9-2.6-10.5c-0.2-3,2-7.1-3.8-7.3c-0.9,0-0.8-1.7-0.7-2.7
		c0.2-2.3,0.6-4.6,0.8-6.9c0.1-1.5,0.4-3.7-1.5-3.7c-4.6,0.1-3.4-3.1-3.3-5.4c0.6-14.8,1.8-29.6,1.8-44.4
		c-0.1-35.2,1.4-70.3,2.3-105.4c0.8-30.6,1.9-61.3,2.8-91.9c0.1-2,0.8-4.8-2.6-4.9c-3-0.1-3.1,2.3-3.2,4.6
		C84,13,83.6,21.1,83.4,29.3c-0.5,17.2-1,34.3-1.6,51.5c-0.8,27.3-2.2,54.6-2.4,81.9c-0.2,29.2-0.6,58.3-2.3,87.4
		c-0.3,5.1-4.6,9.6-3.8,15.2c0,0.3-0.9,0.9-1.5,1.2c-3.3,1.6-3.6,4.5-3.4,7.6s1.3,6.9-0.4,9.3c-2.5,3.5-2.7,7.1-2.5,10.8
		c0.1,2.3-0.5,3.1-2.4,4.1c-6.3,3-12.4,6.4-18.1,10.5c-1.3,0.9-3.9,1.7-2.1,4.1c1.5,1.9,3.2,0.9,4.8-0.3c5.9-4.1,12.3-7.3,18.6-10.6
		c1.9-1,3.6-1.1,5.7-0.2c5.1,2.3,10.4,2.2,15.5,0.2c2.4-1,4.4-0.8,6.6,0.2c8.3,3.7,15.8,9,24.8,13.8c-1.7,0.4-2.2,0.6-2.7,0.6
		c-17.1,0.1-34.3,0.8-51.3,0c-9.5-0.4-19.4,3.6-28.7-1.3c-0.2-0.1-0.7,0-1,0.2c-6.5,4.8-14.6,4-21.8,6.4c-4.3,1.4-8.6,2.8-11.7,6.4
		c-3.4,4-2.2,8.2,2.7,9.6c10.9,3.1,22.1,4.9,33.4,5.3c35,1.2,69.9-0.8,104.9-2.1c5.8-0.2,11.6-1.5,16.8-4.4
		C165.8,333,166,326.9,160.3,323.3z M82.1,255.9c-0.4,3.9-0.2,6.9-1.9,9.7C79.9,262.5,77.8,259.3,82.1,255.9z M73.7,276.3
		c-0.3-7.1,0.3-7.2,8.4-7.5c6.1-0.2,3.5,4.1,4.1,6.5c-0.2,8.7,1.4,5.8-9.9,7.2C71,283.1,73.8,278.4,73.7,276.3z M83.1,299.5
		c-3.5,0.7-6.6-0.4-9.4-2.3c-3.4-2.4-2.8-6.2-2.2-9.6c0.5-2.8,3.3-1.2,5-1.5c1.4-0.3,3-0.2,5.1-0.3c-0.2,0,0.4-0.2,0.8,0
		c2.4,1,6.7-2.8,7.5,2.6C91,296,89.5,298.3,83.1,299.5z M12.7,335c-1.8-0.5-5.2,0.2-4.9-2.6c0.2-2.6,1.7-5.2,4.9-6.3
		c9.4-3.3,19.1-4.3,28.9-5c4.8-0.3,9.6-0.2,14.5-0.4c1.9-0.1,2.9,0.5,3.4,2.6c2.3,8.5,8.5,12.8,16.6,14.8l0,0
		c0.1,0.2,0.1,0.5,0.2,0.8C54.9,339.3,33.6,340.3,12.7,335z M66,324.6c-1.2-2.6-1.2-4,2.3-3.9c5.3,0.1,10.6,0,15.9,0l0,0
		c5,0,10,0.1,15,0c2.9-0.1,3.4,1.1,2.6,3.6c-2.2,6.8-7.5,9.2-14,10.1C78.9,335.6,69.2,331.2,66,324.6z M147.5,336.7
		c-4.1,0.5-8.2,1.1-12.4,1.2c-13.1,0.2-26.2,0.1-40.9,0.1c7.5-3.8,12.2-8.2,13.7-15.3c0.4-1.7,1.4-2,2.9-2c12.6,0,25.3-0.2,37.6,2.9
		c2.9,0.7,7.5,0.6,7.3,5.1C155.5,333.4,152.2,336.1,147.5,336.7z"/>
	<path class="st0" d="M132.9,354.8c-0.9,0.2-1.6,0.9-1.5,1.8c1.2,6.6,3.9,12.6,7.3,18.4c0.4,0.7,1.4,0.8,2.3,0.4
		c0.9-0.4,1-1.2,1-2.3c-2.3-5.6-4.6-11.5-7-17.3C134.7,354.9,133.8,354.6,132.9,354.8z"/>
	<path class="st0" d="M35,357.6c-1.6-0.6-2.6,0.5-3,1.8c-1.7,5.1-3.2,10.2-4.8,15.3c-0.4,1.2-0.3,2.4,1.1,2.9
		c1.6,0.6,2.6-0.4,3.1-1.8c1.7-5.1,3.2-10.2,4.7-15C36.2,359.4,36.5,358.1,35,357.6z"/>
	<path class="st0" d="M88.8,360.5c-0.5-1.1-1.2-2.1-2.6-1.8c-1.2,0.3-1.6,1.3-1.4,2.3c0.9,4.6,0.4,9.3,0.6,13.9
		c0.1,1.4,0.5,2.8,2.2,2.7c1.7-0.1,2.1-1.4,2.1-2.9c0-1.8,0-3.7,0-5.5C89.6,366.4,90,363.4,88.8,360.5z"/>
</g>
</svg>
