<?xml version="1.0" encoding="utf-8"?>
<!-- Generator: Adobe Illustrator 21.1.0, SVG Export Plug-In . SVG Version: 6.00 Build 0)  -->
<svg version="1.1" id="Layer_1" xmlns="http://www.w3.org/2000/svg" xmlns:xlink="http://www.w3.org/1999/xlink" x="0px" y="0px"
	 viewBox="0 0 110 90" style="enable-background:new 0 0 110 90;" xml:space="preserve">
<style type="text/css">
	.st0{fill:#2E2E2E;}
</style>
<path class="st0" d="M51.7,18.3l-3.4-17C48.1,0.5,47.4,0,46.7,0C-1,0.8,0,43.5,0,43.5v42.2C0,88,2,90,4.4,90h35.3
	c2.4,0,4.4-2,4.4-4.4V43.4c0-2.4-2-4.4-4.4-4.4H29.3l0.1,0c-1.1-15,15.4-18.2,20.9-18.8C51.2,20.1,51.8,19.2,51.7,18.3z"/>
<path class="st0" d="M110,18.3l-3.4-17C106.4,0.5,105.8,0,105,0C57.3,0.8,58.3,43.5,58.3,43.5v42.2c0,2.4,2,4.4,4.4,4.4H98
	c2.4,0,4.4-2,4.4-4.4V43.4c0-2.4-2-4.4-4.4-4.4H87.6l0.1,0c-1.1-15,15.4-18.2,20.9-18.8C109.5,20.1,110.2,19.2,110,18.3z"/>
</svg>
